<svg width="512" height="512" xmlns="http://www.w3.org/2000/svg" enable-background="new 0 0 512 512">

 <g>
  <title>Layer 1</title>
  <g stroke="null" id="svg_1">
   <path fill="#ffca2c" stroke="null" id="svg_2" d="m202.39424,346.11636c-11.84167,0 -21.47572,9.634 -21.47572,21.47571s9.63405,21.47644 21.47572,21.47644s21.47575,-9.63477 21.47575,-21.47644s-9.63405,-21.47571 -21.47575,-21.47571zm0,32.56171c-6.11201,0 -11.08528,-4.97256 -11.08528,-11.0853c0,-6.11203 4.97258,-11.08459 11.08528,-11.08459s11.08531,4.97256 11.08531,11.08459s-4.97328,11.0853 -11.08531,11.0853z"/>
   <path fill="#ffca2c" stroke="null" id="svg_3" d="m292.53622,367.59207c0,11.84167 9.63403,21.47644 21.47571,21.47644s21.47574,-9.63477 21.47574,-21.47644s-9.634,-21.47571 -21.47574,-21.47571s-21.47571,9.634 -21.47571,21.47571zm21.47571,-11.08463c6.11273,0 11.0853,4.9726 11.0853,11.08463c0,6.11273 -4.97256,11.0853 -11.0853,11.0853c-6.11203,0 -11.08527,-4.97256 -11.08527,-11.0853c0,-6.11203 4.97324,-11.08463 11.08527,-11.08463z"/>
   <path fill="#ffca2c" stroke="null" id="svg_4" d="m434.61026,440.67221l-23.422,-139.48062c-0.01523,-0.0892 -0.03253,-0.1777 -0.05185,-0.2655c-3.29663,-23.1282 -18.86014,-42.05054 -39.50967,-50.53896l0,-9.64301c0,-8.59419 -6.99149,-15.58636 -15.58633,-15.58636l-19.59235,0c-8.59418,0 -15.5864,6.99217 -15.5864,15.58636l0,10.43053c-6.91196,3.1037 -13.28464,7.43814 -18.84491,12.92166l-87.62801,0c-5.56026,-5.48352 -11.93294,-9.81796 -18.84492,-12.92166l0,-10.43053c0,-8.59419 -6.9915,-15.58636 -15.58635,-15.58636l-19.59235,0c-8.59418,0 -15.58635,6.99217 -15.58635,15.58636l0,9.64371c-20.64743,8.48772 -36.20959,27.40794 -39.50828,50.5334c-0.02004,0.08917 -0.03733,0.17908 -0.05254,0.27036l-7.54324,44.91782c-0.47498,2.8299 1.4333,5.50916 4.26322,5.9841c2.82991,0.47293 5.50911,-1.43329 5.9841,-4.26321l7.47064,-44.49051c0.0477,-0.18945 0.08573,-0.38303 0.112,-0.57938c3.61604,-26.68756 26.67648,-46.81229 53.64268,-46.81229c14.3259,0 27.68797,5.49115 37.86411,15.48538l0,7.09589c0,10.50381 8.54578,19.04959 19.04959,19.04959l21.75092,0c2.86934,0 5.19524,-2.32587 5.19524,-5.19519c0,-2.87003 -2.3259,-5.19522 -5.19524,-5.19522l-21.75092,0c-4.77484,0 -8.65915,-3.88431 -8.65915,-8.65918l0,-4.04401l81.60101,0l0,4.04401c0,4.77487 -3.88434,8.65918 -8.65915,8.65918l-21.75092,0c-2.86932,0 -5.19525,2.32587 -5.19525,5.19522s2.32593,5.19519 5.19525,5.19519l21.75092,0c10.50381,0 19.04959,-8.54578 19.04959,-19.04959l0,-7.09589c10.17609,-9.99496 23.53818,-15.48538 37.86411,-15.48538c26.96545,0 50.02731,20.12473 53.64267,46.81229c0.02628,0.19427 0.0629,0.38507 0.11063,0.57245l23.3515,139.05957c2.45038,14.59143 -5.38257,28.7438 -19.04752,34.41611c-8.18069,3.39615 -17.12677,3.24609 -25.18997,-0.41971s-14.05627,-10.30817 -16.87579,-18.70456l-4.78244,-14.24094c-0.91336,-2.71997 -3.85947,-4.18713 -6.57944,-3.271c-2.72,0.91333 -4.18439,3.85873 -3.27103,6.57867l4.78247,14.24091c3.69275,10.99542 11.86658,20.05557 22.42572,24.85602c5.49734,2.49875 11.4379,3.75159 17.3833,3.75159c5.47522,0 10.95462,-1.06271 16.09036,-3.19501c18.15976,-7.53629 28.56818,-26.34253 25.31232,-45.7323l0,0zm-279.44035,-193.56166l0,-6.36646c0,-2.86517 2.33073,-5.19521 5.19522,-5.19521l19.59235,0c2.86519,0 5.19522,2.3307 5.19522,5.19521l0,6.80342c-5.15926,-1.30812 -10.52179,-1.98917 -16.00465,-1.98917c-4.78383,0 -9.46118,0.54205 -13.97813,1.5522zm176.08357,0.43697l0,-6.80342c0,-2.86517 2.33075,-5.19521 5.19528,-5.19521l19.59235,0c2.86517,0 5.19522,2.3307 5.19522,5.19521l0,6.36646c-4.517,-1.01015 -9.19434,-1.5522 -13.97815,-1.5522c-5.48285,0 -10.8454,0.68105 -16.0047,1.98917z"/>
   <path fill="#ffca2c" stroke="null" id="svg_5" d="m351.84631,423.73209l-9.23367,-27.49438c-0.52686,-1.56952 -1.77069,-2.79401 -3.34781,-3.29663c-1.57639,-0.50201 -3.29938,-0.22336 -4.63794,0.75226c-5.6412,4.11172 -12.31741,6.28485 -19.30682,6.28485c-9.00067,0 -17.4006,-3.57941 -23.65298,-10.07861c-0.97968,-1.01846 -2.33139,-1.59369 -3.74396,-1.59369l-59.43938,0c-1.41255,0 -2.76494,0.57593 -3.74397,1.59369c-6.2524,6.49991 -14.65295,10.07861 -23.65366,10.07861c-6.98941,0 -13.66631,-2.1738 -19.30679,-6.28485c-1.33717,-0.97491 -3.05948,-1.25427 -4.63727,-0.75226c-1.57777,0.50262 -2.82091,1.72711 -3.34778,3.29663l-20.63705,61.4472c-2.81956,8.39645 -8.81265,15.03876 -16.87582,18.70459c-8.06387,3.66586 -17.00926,3.81378 -25.18996,0.41971c-13.66563,-5.6723 -21.49786,-19.82468 -19.04752,-34.41611l12.43492,-74.04947c0.47499,-2.82996 -1.43329,-5.50912 -4.26321,-5.98413c-2.83337,-0.47083 -5.50911,1.43329 -5.9841,4.26321l-12.43493,74.0495c-3.25582,19.38977 7.1526,38.19669 25.31235,45.73367c5.13715,2.13232 10.61446,3.19568 16.09038,3.19498c5.94402,0 11.88663,-1.25281 17.38332,-3.75156c10.55914,-4.80038 18.73293,-13.8606 22.4257,-24.85602l18.56355,-55.27371c6.01315,3.05673 12.64995,4.65039 19.51561,4.65039c11.09428,0 21.49438,-4.12836 29.52922,-11.67297l55.17618,0c8.03415,7.54391 18.43427,11.67297 29.52856,11.67297c6.86563,0 13.50244,-1.59296 19.51559,-4.65039l7.16019,21.32086c0.91336,2.72 3.85803,4.18716 6.57941,3.27109c2.71863,-0.91403 4.18301,-3.8595 3.26965,-6.57944z"/>
   <path fill="#ffca2c" stroke="null" id="svg_6" d="m169.56566,277.84561c-8.94264,0 -16.21831,7.27563 -16.21831,16.21829l0,1.17606l-1.17607,0c-8.94266,0 -16.21829,7.27563 -16.21829,16.21829s7.27495,16.21832 16.21829,16.21832l1.17607,0l0,1.17606c0,8.94263 7.27567,16.21829 16.21831,16.21829s16.21828,-7.27567 16.21828,-16.21829l0,-1.17606l1.17609,0c8.94264,0 16.21829,-7.2757 16.21829,-16.21832s-7.27496,-16.21829 -16.21829,-16.21829l-1.17609,0l0,-1.17606c-0.00069,-8.94266 -7.27563,-16.21829 -16.21828,-16.21829zm17.39436,27.78549c3.21297,0 5.82716,2.6142 5.82716,5.82715s-2.6142,5.82718 -5.82716,5.82718l-6.37199,0c-2.86934,0 -5.19521,2.3259 -5.19521,5.19522l0,6.37198c0,3.21365 -2.61421,5.82718 -5.82716,5.82718s-5.82787,-2.61423 -5.82787,-5.82718l0,-6.37198c0,-2.86932 -2.32588,-5.19522 -5.19522,-5.19522l-6.37129,0c-3.21297,0 -5.82716,-2.6142 -5.82716,-5.82718c0,-3.21362 2.6142,-5.82715 5.82716,-5.82715l6.37129,0c2.86934,0 5.19522,-2.3259 5.19522,-5.19522l0,-6.37198c0,-3.21365 2.6142,-5.82718 5.82787,-5.82718c3.21295,0 5.82716,2.61423 5.82716,5.82718l0,6.37198c0,2.86932 2.32587,5.19522 5.19521,5.19522l6.37199,0z"/>
   <path fill="#ffca2c" stroke="null" id="svg_7" d="m350.3992,270.75043c-8.366,0 -15.17218,6.80615 -15.17218,15.17215s6.80618,15.17221 15.17218,15.17221s15.17221,-6.80618 15.17221,-15.17221s-6.80618,-15.17215 -15.17221,-15.17215zm0,19.95392c-2.63629,0 -4.78107,-2.14545 -4.78107,-4.78107s2.14478,-4.78104 4.78107,-4.78104s4.78107,2.14539 4.78107,4.78104s-2.14471,4.78107 -4.78107,4.78107z"/>
   <path fill="#ffca2c" stroke="null" id="svg_8" d="m350.3992,321.82175c-8.366,0 -15.17218,6.80618 -15.17218,15.17221c0,8.36526 6.80618,15.17151 15.17218,15.17151s15.17221,-6.80624 15.17221,-15.17218c0,-8.36536 -6.80618,-15.17154 -15.17221,-15.17154zm0,19.95328c-2.63629,0 -4.78107,-2.14545 -4.78107,-4.78107c0,-2.63632 2.14478,-4.78107 4.78107,-4.78107s4.78107,2.14542 4.78107,4.78107s-2.14471,4.78107 -4.78107,4.78107z"/>
   <path fill="#ffca2c" stroke="null" id="svg_9" d="m391.10706,311.45825c0,-8.36597 -6.80618,-15.17221 -15.17221,-15.17221s-15.17218,6.80624 -15.17218,15.17221s6.80618,15.17218 15.17218,15.17218s15.17221,-6.80618 15.17221,-15.17218zm-19.95328,0c0,-2.63632 2.14478,-4.7811 4.78107,-4.7811s4.7811,2.14545 4.7811,4.7811s-2.14478,4.78104 -4.7811,4.78104s-4.78107,-2.14468 -4.78107,-4.78104z"/>
   <path fill="#ffca2c" stroke="null" id="svg_10" d="m309.69135,311.45825c0,8.366 6.80618,15.17218 15.17221,15.17218s15.17148,-6.80618 15.17148,-15.17218s-6.80618,-15.17221 -15.17148,-15.17221c-8.36603,0 -15.17221,6.80624 -15.17221,15.17221zm19.95328,0c0,2.63635 -2.14478,4.78104 -4.78107,4.78104s-4.78107,-2.14542 -4.78107,-4.78104s2.14471,-4.7811 4.78107,-4.7811c2.63629,-0.00067 4.78107,2.14478 4.78107,4.7811z"/>
   <path fill="#ffca2c" stroke="null" id="svg_11" d="m242.8622,331.57678c2.86934,0 5.19522,-2.32593 5.19522,-5.19522s-2.32588,-5.19519 -5.19522,-5.19519l-15.55038,0c-2.86934,0 -5.19522,2.32584 -5.19522,5.19519s2.32588,5.19522 5.19522,5.19522l15.55038,0z"/>
   <path fill="#ffca2c" stroke="null" id="svg_12" d="m289.09439,321.18637l-15.55042,0c-2.86929,0 -5.19519,2.32584 -5.19519,5.19519s2.3259,5.19522 5.19519,5.19522l15.55042,0c2.86932,0 5.19519,-2.32593 5.19519,-5.19522c0,-2.87006 -2.32587,-5.19519 -5.19519,-5.19519z"/>
  </g>
  <g stroke="null">
   <g stroke="null">
    <g stroke="null">
     <g stroke="null">
      <path fill="#ffca2c" stroke="null" d="m303.94177,99.95447c-13.42572,-12.72281 -31.55652,-19.2584 -50.01241,-18.02786c-35.32387,2.13327 -62.99457,31.20036 -63.38805,66.58656c-0.29053,25.29701 15.11987,48.26817 35.47414,59.60794l0,33.14777c0,17.66441 14.3201,31.98451 31.98454,31.98451s31.98456,-14.3201 31.98456,-31.98451l0,-32.85724c21.47681,-12.25586 34.94427,-34.88585 35.47412,-59.60793c-0.25269,-18.52655 -8.01825,-36.15704 -21.51691,-48.84924zm-45.94177,161.08704c-9.81871,-0.43634 -17.96887,-7.73499 -19.48158,-17.44627l38.96315,0c-1.5127,9.71129 -9.66229,17.00938 -19.48157,17.44627zm20.35425,-29.0771l-40.70796,0l0,-8.72285l40.70796,0l0,8.72285zm2.90744,-32.56613c-1.86166,1.07358 -2.9798,3.08607 -2.90744,5.23381l0,6.97862l-40.70796,0l0,-6.97862c0.11632,-2.23511 -0.99901,-4.35501 -2.90742,-5.5249c-19.94965,-8.73341 -32.76372,-28.52667 -32.56615,-50.30347c0.52594,-29.18288 23.22719,-53.14471 52.33881,-55.24625l3.48906,0c30.54251,0.15472 55.35364,24.70705 55.82779,55.24625c0.01172,21.79404 -12.72443,41.58005 -32.56668,50.59456z"/>
      <path fill="#ffca2c" stroke="null" d="m258,65.93405c3.21185,0 5.81543,-2.60356 5.81543,-5.81543l0,-31.40295c0,-3.21186 -2.60358,-5.81542 -5.81543,-5.81542s-5.81543,2.60356 -5.81543,5.81542l0,31.40295c0,3.21187 2.60356,5.81543 5.81543,5.81543z"/>
      <path fill="#ffca2c" stroke="null" d="m172.22293,138.91763l-31.4035,0c-3.21187,0 -5.81543,2.60356 -5.81543,5.81543s2.60356,5.81541 5.81543,5.81541l31.40295,0c3.21185,0 5.81541,-2.60355 5.81541,-5.81541s-2.603,-5.81543 -5.81487,-5.81543z"/>
      <path fill="#ffca2c" stroke="null" d="m375.18057,138.91763l-31.40295,0c-3.21188,0 -5.8154,2.60356 -5.8154,5.81543s2.60352,5.81541 5.8154,5.81541l31.40295,0c3.21188,0 5.81543,-2.60355 5.81543,-5.81541s-2.60355,-5.81543 -5.81543,-5.81543z"/>
      <path fill="#ffca2c" stroke="null" d="m171.05972,67.09724l22.38957,22.09849c2.06259,2.24849 5.55775,2.39876 7.80566,0.3356c0.11688,-0.10686 0.22876,-0.21928 0.33562,-0.3356c2.24846,-2.06258 2.39874,-5.55773 0.33559,-7.80566c-0.10686,-0.11687 -0.21928,-0.22874 -0.33559,-0.3356l-22.38904,-22.0985c-1.92677,-2.5696 -5.5722,-3.08998 -8.14182,-1.16319c-2.5696,1.92679 -3.08997,5.5722 -1.16319,8.14182c0.3306,0.44023 0.72241,0.83204 1.16319,1.16264z"/>
      <path fill="#ffca2c" stroke="null" d="m314.40945,89.19573c1.07358,1.09586 2.53674,1.72254 4.07062,1.7448c1.53384,-0.0217 2.99704,-0.64893 4.07062,-1.7448l22.38959,-22.0985c2.56961,-1.92677 3.09,-5.5722 1.16318,-8.1418c-1.92676,-2.5696 -5.5722,-3.08998 -8.14178,-1.1632c-0.4408,0.33059 -0.83261,0.7224 -1.16321,1.1632l-22.38959,22.0985c-2.24847,2.06258 -2.39871,5.55774 -0.33557,7.80566c0.10739,0.11742 0.21982,0.22929 0.33615,0.33614z"/>
     </g>
    </g>
   </g>
   <g stroke="null"/>
   <g stroke="null"/>
   <g stroke="null"/>
   <g stroke="null"/>
   <g stroke="null"/>
   <g stroke="null"/>
   <g stroke="null"/>
   <g stroke="null"/>
   <g stroke="null"/>
   <g stroke="null"/>
   <g stroke="null"/>
   <g stroke="null"/>
   <g stroke="null"/>
   <g stroke="null"/>
   <g stroke="null"/>
  </g>
  <ellipse stroke="#ffca2c" ry="16" rx="16" id="svg_20" cy="311" cx="325" fill="#0000ff"/>
  <ellipse stroke="#ffca2c" ry="16" rx="16" id="svg_22" cy="311" cx="374" fill="#ff0000"/>
  <ellipse stroke="#ffca2c" ry="16" rx="16" id="svg_23" cy="336" cx="350" fill="#007f00"/>
 </g>
</svg>